<?xml version="1.0" encoding="UTF-8" standalone="no"?>
<!DOCTYPE svg PUBLIC "-//W3C//DTD SVG 1.1//EN" "http://www.w3.org/Graphics/SVG/1.1/DTD/svg11.dtd">
<svg width="100%" height="100%" viewBox="0 0 198 192" version="1.1" xmlns="http://www.w3.org/2000/svg" xmlns:xlink="http://www.w3.org/1999/xlink" xml:space="preserve" xmlns:serif="http://www.serif.com/" style="fill-rule:evenodd;clip-rule:evenodd;stroke-linecap:round;stroke-miterlimit:5;">
    <g transform="matrix(1,0,0,1,-347,-643)">
        <g id="logo-without-background" serif:id="logo without background" transform="matrix(1.30263,0,0,1.11628,347,30.1628)">
            <rect x="0" y="549" width="152" height="172" style="fill:none;"/>
            <clipPath id="_clip1">
                <rect x="0" y="549" width="152" height="172"/>
            </clipPath>
            <g clip-path="url(#_clip1)">
                <g transform="matrix(0.767677,0,0,0.895833,-266.384,-27.0208)">
                    <path d="M497.658,813.898L497.658,817.838L497.657,817.903L497.656,818.064C497.49,826.416 490.2,833.308 482.149,833.36L363.767,833.36L363.553,833.359C355.196,833.2 348.296,825.906 348.245,817.851L348.245,699.469L348.246,699.256L348.246,699.256C348.406,690.898 355.699,683.999 363.754,683.947L370.975,683.947L370.975,683.945C408.1,683.919 445.225,683.713 482.349,683.949C490.707,684.108 497.607,691.401 497.658,699.456C497.658,737.603 497.89,775.752 497.681,813.898L497.658,813.898ZM393.705,664.483C430.829,664.458 467.955,664.252 505.079,664.487C513.437,664.646 520.336,671.94 520.387,679.994C520.387,718.142 520.619,756.29 520.41,794.437L520.387,794.437L520.387,798.377L520.386,798.59L520.386,798.59C520.251,805.65 515.027,811.669 508.554,813.399C508.57,775.305 508.794,737.21 508.55,699.117C508.284,685.113 496.047,673.312 482.488,673.055C445.917,672.82 409.343,672.802 372.771,673C375.445,668.001 380.773,664.523 386.483,664.486L393.705,664.486L393.705,664.483ZM395.369,653.542C397.927,648.491 403.168,645.025 409.213,645.025L527.609,645.025C536.168,645.025 543.117,651.974 543.117,660.533L543.117,778.929C543.117,786.222 538.072,792.346 531.283,793.998C531.299,755.884 531.513,717.769 531.28,679.656C531.273,679.319 531.265,678.982 531.248,678.646C530.556,664.994 518.504,653.846 505.216,653.593C468.601,653.369 431.984,653.352 395.369,653.542Z" style="fill:rgb(45,37,37);"/>
                </g>
                <g transform="matrix(0.492897,-0.661126,0.566546,0.575181,-415.335,304.019)">
                    <path d="M150.786,737.913C150.786,759.389 133.35,776.826 111.874,776.826C90.397,776.826 72.961,759.389 72.961,737.913C72.961,716.436 90.397,699 111.874,699" style="fill:none;stroke:rgb(222,37,67);stroke-width:15px;"/>
                </g>
                <g transform="matrix(0.510389,-0.0702895,0.060234,0.595594,-33.4112,235.926)">
                    <path d="M68.399,696.08L25.84,670.088L65,655.288L68.399,696.08Z" style="fill:rgb(222,37,67);stroke:rgb(222,37,67);stroke-width:16.43px;stroke-linejoin:round;stroke-miterlimit:1.5;"/>
                </g>
            </g>
        </g>
    </g>
</svg>
